<svg width="179" height="56" viewBox="0 0 179 56" fill="none" xmlns="http://www.w3.org/2000/svg">
<mask id="path-1-outside-1_62863_751" maskUnits="userSpaceOnUse" x="0" y="0" width="179" height="56" fill="black">
<rect fill="white" width="179" height="56"/>
<path d="M9.76534 25.3826L12.4107 24.0738L16.592 17.7919L17.872 17.2685L19.2374 23.6376L17.4454 23.8993L16.08 21.2819L15.056 25.3826H19.5787L24.272 26.604L26.1494 25.3826L29.3067 28.698L30.672 22.5906L32.8907 24.8591L34.256 22.9396L36.4747 22.3289L39.7174 19.2752L40.2294 17.7919L42.8747 18.2282L43.9841 19.7114L42.0214 23.8993L46.8854 21.3691V20.1476L48.7627 19.7114L50.8107 21.8054L52.8587 19.2752V17.5302L56.1867 15.1745L57.5521 13.1678H59.6854L63.4401 5.40268L66.6828 2L67.8774 3.91946L66.0001 6.36242L66.6828 7.93289L68.4748 8.28188L69.9254 14.7383V20.1476L72.4854 23.7248L73.7654 28.698L69.3281 25.8188L67.3654 17.5302L66.1707 17.7919L66.0001 23.3758L62.7574 28.698L61.8187 36.8121L64.0374 37.3356L64.9761 36.2013L67.1094 38.6443L68.7307 45.9732L68.5601 50.6846H66.5121L65.7441 44.0537L64.2934 46.0604L61.1361 45.3624L58.5761 43.1812L55.6747 44.2282L55.8454 48.9396L53.5414 49.5503L50.1281 52.1678L46.0321 51.6443L44.4107 50.6846L41.8507 51.1208L42.7041 52.1678L40.6561 53.3893L39.0347 52.604L35.9627 54L31.2694 51.6443L29.4774 47.4564L27.9414 47.6309L26.1494 46.1477L26.064 45.0134L20.3467 44.4027L19.408 47.5436L15.824 45.8859L14.032 42.8322H10.192L9.76534 47.7181L7.54667 48.4161L6.43734 52.8658L5.584 52.0805L2 42.745L6.26667 40.651L5.584 36.5503L4.90134 32.3624L6.77867 29.6577L6.18134 28L8.74134 25.2081L9.76534 25.3826ZM66.5121 35.6779L70.4374 41.6107L71.7174 41.0872L70.0961 38.6443L66.5121 34.8054V35.6779ZM26.4054 23.6376V21.8926L29.392 19.7114L31.952 18.4027H28.9654L26.32 19.9732L24.6987 21.4564V23.6376H26.4054Z"/>
<path d="M91.8314 43.0004H96.5546V37.8186H99.171C103.138 37.8186 105.797 35.4749 105.797 31.7164C105.797 28.0004 103.206 25.5459 99.3409 25.5459H91.8314V43.0004ZM96.5546 34.1368V29.33H98.2196C99.8761 29.33 100.87 30.2164 100.87 31.7164C100.87 33.2078 99.8761 34.1368 98.2196 34.1368H96.5546Z"/>
<path d="M113.604 43.2391C117.851 43.2391 120.366 40.5118 120.366 36.4891C120.366 32.4664 117.851 29.7391 113.604 29.7391C109.356 29.7391 106.842 32.4664 106.842 36.4891C106.842 40.5118 109.356 43.2391 113.604 43.2391ZM113.638 39.7618C112.381 39.7618 111.633 38.509 111.633 36.455C111.633 34.401 112.381 33.1482 113.638 33.1482C114.827 33.1482 115.575 34.401 115.575 36.455C115.575 38.509 114.827 39.7618 113.638 39.7618Z"/>
<path d="M128.555 43.2391C132.42 43.2391 134.79 41.0146 134.841 37.5459H130.492C130.39 38.9181 129.651 39.6595 128.623 39.6595C127.391 39.6595 126.584 38.6027 126.584 36.455C126.584 34.3073 127.391 33.2504 128.623 33.2504C129.659 33.2504 130.364 33.9919 130.492 35.3641H134.841C134.816 31.955 132.395 29.7391 128.555 29.7391C124.308 29.7391 121.793 32.4664 121.793 36.4891C121.793 40.5118 124.308 43.2391 128.555 43.2391Z"/>
<path d="M143.062 43.2391C146.928 43.2391 149.298 41.0146 149.349 37.5459H144.999C144.897 38.9181 144.158 39.6595 143.13 39.6595C141.899 39.6595 141.092 38.6027 141.092 36.455C141.092 34.3073 141.899 33.2504 143.13 33.2504C144.167 33.2504 144.872 33.9919 144.999 35.3641H149.349C149.323 31.955 146.902 29.7391 143.062 29.7391C138.815 29.7391 136.3 32.4664 136.3 36.4891C136.3 40.5118 138.815 43.2391 143.062 43.2391Z"/>
<path d="M155.701 37.0004V29.9095H151.283V43.0004H155.701L159.337 35.8754V43.0004H163.754V29.9095H159.337L155.701 37.0004Z"/>
<path d="M173.651 43.0004H178V29.9095H171.884C168.12 29.9095 165.742 31.8186 165.767 34.4777C165.75 35.9692 166.642 37.205 168.205 37.9379L165.631 43.0004H169.947L172.147 38.6709H173.651V43.0004ZM173.651 35.8414H171.986C170.737 35.8414 170.159 35.2277 170.185 34.6482C170.159 34.1027 170.703 33.4209 171.884 33.4209H173.651V35.8414Z"/>
</mask>
<path d="M9.76534 25.3826L12.4107 24.0738L16.592 17.7919L17.872 17.2685L19.2374 23.6376L17.4454 23.8993L16.08 21.2819L15.056 25.3826H19.5787L24.272 26.604L26.1494 25.3826L29.3067 28.698L30.672 22.5906L32.8907 24.8591L34.256 22.9396L36.4747 22.3289L39.7174 19.2752L40.2294 17.7919L42.8747 18.2282L43.9841 19.7114L42.0214 23.8993L46.8854 21.3691V20.1476L48.7627 19.7114L50.8107 21.8054L52.8587 19.2752V17.5302L56.1867 15.1745L57.5521 13.1678H59.6854L63.4401 5.40268L66.6828 2L67.8774 3.91946L66.0001 6.36242L66.6828 7.93289L68.4748 8.28188L69.9254 14.7383V20.1476L72.4854 23.7248L73.7654 28.698L69.3281 25.8188L67.3654 17.5302L66.1707 17.7919L66.0001 23.3758L62.7574 28.698L61.8187 36.8121L64.0374 37.3356L64.9761 36.2013L67.1094 38.6443L68.7307 45.9732L68.5601 50.6846H66.5121L65.7441 44.0537L64.2934 46.0604L61.1361 45.3624L58.5761 43.1812L55.6747 44.2282L55.8454 48.9396L53.5414 49.5503L50.1281 52.1678L46.0321 51.6443L44.4107 50.6846L41.8507 51.1208L42.7041 52.1678L40.6561 53.3893L39.0347 52.604L35.9627 54L31.2694 51.6443L29.4774 47.4564L27.9414 47.6309L26.1494 46.1477L26.064 45.0134L20.3467 44.4027L19.408 47.5436L15.824 45.8859L14.032 42.8322H10.192L9.76534 47.7181L7.54667 48.4161L6.43734 52.8658L5.584 52.0805L2 42.745L6.26667 40.651L5.584 36.5503L4.90134 32.3624L6.77867 29.6577L6.18134 28L8.74134 25.2081L9.76534 25.3826ZM66.5121 35.6779L70.4374 41.6107L71.7174 41.0872L70.0961 38.6443L66.5121 34.8054V35.6779ZM26.4054 23.6376V21.8926L29.392 19.7114L31.952 18.4027H28.9654L26.32 19.9732L24.6987 21.4564V23.6376H26.4054Z" fill="white"/>
<path d="M91.8314 43.0004H96.5546V37.8186H99.171C103.138 37.8186 105.797 35.4749 105.797 31.7164C105.797 28.0004 103.206 25.5459 99.3409 25.5459H91.8314V43.0004ZM96.5546 34.1368V29.33H98.2196C99.8761 29.33 100.87 30.2164 100.87 31.7164C100.87 33.2078 99.8761 34.1368 98.2196 34.1368H96.5546Z" fill="white"/>
<path d="M113.604 43.2391C117.851 43.2391 120.366 40.5118 120.366 36.4891C120.366 32.4664 117.851 29.7391 113.604 29.7391C109.356 29.7391 106.842 32.4664 106.842 36.4891C106.842 40.5118 109.356 43.2391 113.604 43.2391ZM113.638 39.7618C112.381 39.7618 111.633 38.509 111.633 36.455C111.633 34.401 112.381 33.1482 113.638 33.1482C114.827 33.1482 115.575 34.401 115.575 36.455C115.575 38.509 114.827 39.7618 113.638 39.7618Z" fill="white"/>
<path d="M128.555 43.2391C132.42 43.2391 134.79 41.0146 134.841 37.5459H130.492C130.39 38.9181 129.651 39.6595 128.623 39.6595C127.391 39.6595 126.584 38.6027 126.584 36.455C126.584 34.3073 127.391 33.2504 128.623 33.2504C129.659 33.2504 130.364 33.9919 130.492 35.3641H134.841C134.816 31.955 132.395 29.7391 128.555 29.7391C124.308 29.7391 121.793 32.4664 121.793 36.4891C121.793 40.5118 124.308 43.2391 128.555 43.2391Z" fill="white"/>
<path d="M143.062 43.2391C146.928 43.2391 149.298 41.0146 149.349 37.5459H144.999C144.897 38.9181 144.158 39.6595 143.13 39.6595C141.899 39.6595 141.092 38.6027 141.092 36.455C141.092 34.3073 141.899 33.2504 143.13 33.2504C144.167 33.2504 144.872 33.9919 144.999 35.3641H149.349C149.323 31.955 146.902 29.7391 143.062 29.7391C138.815 29.7391 136.3 32.4664 136.3 36.4891C136.3 40.5118 138.815 43.2391 143.062 43.2391Z" fill="white"/>
<path d="M155.701 37.0004V29.9095H151.283V43.0004H155.701L159.337 35.8754V43.0004H163.754V29.9095H159.337L155.701 37.0004Z" fill="white"/>
<path d="M173.651 43.0004H178V29.9095H171.884C168.12 29.9095 165.742 31.8186 165.767 34.4777C165.75 35.9692 166.642 37.205 168.205 37.9379L165.631 43.0004H169.947L172.147 38.6709H173.651V43.0004ZM173.651 35.8414H171.986C170.737 35.8414 170.159 35.2277 170.185 34.6482C170.159 34.1027 170.703 33.4209 171.884 33.4209H173.651V35.8414Z" fill="white"/>
<path d="M9.76534 25.3826L12.4107 24.0738L16.592 17.7919L17.872 17.2685L19.2374 23.6376L17.4454 23.8993L16.08 21.2819L15.056 25.3826H19.5787L24.272 26.604L26.1494 25.3826L29.3067 28.698L30.672 22.5906L32.8907 24.8591L34.256 22.9396L36.4747 22.3289L39.7174 19.2752L40.2294 17.7919L42.8747 18.2282L43.9841 19.7114L42.0214 23.8993L46.8854 21.3691V20.1476L48.7627 19.7114L50.8107 21.8054L52.8587 19.2752V17.5302L56.1867 15.1745L57.5521 13.1678H59.6854L63.4401 5.40268L66.6828 2L67.8774 3.91946L66.0001 6.36242L66.6828 7.93289L68.4748 8.28188L69.9254 14.7383V20.1476L72.4854 23.7248L73.7654 28.698L69.3281 25.8188L67.3654 17.5302L66.1707 17.7919L66.0001 23.3758L62.7574 28.698L61.8187 36.8121L64.0374 37.3356L64.9761 36.2013L67.1094 38.6443L68.7307 45.9732L68.5601 50.6846H66.5121L65.7441 44.0537L64.2934 46.0604L61.1361 45.3624L58.5761 43.1812L55.6747 44.2282L55.8454 48.9396L53.5414 49.5503L50.1281 52.1678L46.0321 51.6443L44.4107 50.6846L41.8507 51.1208L42.7041 52.1678L40.6561 53.3893L39.0347 52.604L35.9627 54L31.2694 51.6443L29.4774 47.4564L27.9414 47.6309L26.1494 46.1477L26.064 45.0134L20.3467 44.4027L19.408 47.5436L15.824 45.8859L14.032 42.8322H10.192L9.76534 47.7181L7.54667 48.4161L6.43734 52.8658L5.584 52.0805L2 42.745L6.26667 40.651L5.584 36.5503L4.90134 32.3624L6.77867 29.6577L6.18134 28L8.74134 25.2081L9.76534 25.3826ZM66.5121 35.6779L70.4374 41.6107L71.7174 41.0872L70.0961 38.6443L66.5121 34.8054V35.6779ZM26.4054 23.6376V21.8926L29.392 19.7114L31.952 18.4027H28.9654L26.32 19.9732L24.6987 21.4564V23.6376H26.4054Z" stroke="black" stroke-width="2" mask="url(#path-1-outside-1_62863_751)"/>
<path d="M91.8314 43.0004H96.5546V37.8186H99.171C103.138 37.8186 105.797 35.4749 105.797 31.7164C105.797 28.0004 103.206 25.5459 99.3409 25.5459H91.8314V43.0004ZM96.5546 34.1368V29.33H98.2196C99.8761 29.33 100.87 30.2164 100.87 31.7164C100.87 33.2078 99.8761 34.1368 98.2196 34.1368H96.5546Z" stroke="black" stroke-width="2" mask="url(#path-1-outside-1_62863_751)"/>
<path d="M113.604 43.2391C117.851 43.2391 120.366 40.5118 120.366 36.4891C120.366 32.4664 117.851 29.7391 113.604 29.7391C109.356 29.7391 106.842 32.4664 106.842 36.4891C106.842 40.5118 109.356 43.2391 113.604 43.2391ZM113.638 39.7618C112.381 39.7618 111.633 38.509 111.633 36.455C111.633 34.401 112.381 33.1482 113.638 33.1482C114.827 33.1482 115.575 34.401 115.575 36.455C115.575 38.509 114.827 39.7618 113.638 39.7618Z" stroke="black" stroke-width="2" mask="url(#path-1-outside-1_62863_751)"/>
<path d="M128.555 43.2391C132.42 43.2391 134.79 41.0146 134.841 37.5459H130.492C130.39 38.9181 129.651 39.6595 128.623 39.6595C127.391 39.6595 126.584 38.6027 126.584 36.455C126.584 34.3073 127.391 33.2504 128.623 33.2504C129.659 33.2504 130.364 33.9919 130.492 35.3641H134.841C134.816 31.955 132.395 29.7391 128.555 29.7391C124.308 29.7391 121.793 32.4664 121.793 36.4891C121.793 40.5118 124.308 43.2391 128.555 43.2391Z" stroke="black" stroke-width="2" mask="url(#path-1-outside-1_62863_751)"/>
<path d="M143.062 43.2391C146.928 43.2391 149.298 41.0146 149.349 37.5459H144.999C144.897 38.9181 144.158 39.6595 143.13 39.6595C141.899 39.6595 141.092 38.6027 141.092 36.455C141.092 34.3073 141.899 33.2504 143.13 33.2504C144.167 33.2504 144.872 33.9919 144.999 35.3641H149.349C149.323 31.955 146.902 29.7391 143.062 29.7391C138.815 29.7391 136.3 32.4664 136.3 36.4891C136.3 40.5118 138.815 43.2391 143.062 43.2391Z" stroke="black" stroke-width="2" mask="url(#path-1-outside-1_62863_751)"/>
<path d="M155.701 37.0004V29.9095H151.283V43.0004H155.701L159.337 35.8754V43.0004H163.754V29.9095H159.337L155.701 37.0004Z" stroke="black" stroke-width="2" mask="url(#path-1-outside-1_62863_751)"/>
<path d="M173.651 43.0004H178V29.9095H171.884C168.12 29.9095 165.742 31.8186 165.767 34.4777C165.75 35.9692 166.642 37.205 168.205 37.9379L165.631 43.0004H169.947L172.147 38.6709H173.651V43.0004ZM173.651 35.8414H171.986C170.737 35.8414 170.159 35.2277 170.185 34.6482C170.159 34.1027 170.703 33.4209 171.884 33.4209H173.651V35.8414Z" stroke="black" stroke-width="2" mask="url(#path-1-outside-1_62863_751)"/>
</svg>
